HIERARCHY
ROOT Hips
{
  OFFSET 5.72205e-005 65.662 3.42586
  CHANNELS 6 Xposition Yposition Zposition Zrotation Xrotation Yrotation
  JOINT Chest
  {
    OFFSET 0 8.7983 -4.7612
    CHANNELS 6 Xposition Yposition Zposition Zrotation Xrotation Yrotation
    JOINT Chest2
    {
      OFFSET 0 8.0291 0.4195
      CHANNELS 6 Xposition Yposition Zposition Zrotation Xrotation Yrotation
      JOINT Chest3
      {
        OFFSET 0 9.9351 -2.2114
        CHANNELS 6 Xposition Yposition Zposition Zrotation Xrotation Yrotation
        JOINT Neck
        {
          OFFSET 0 22.3885 -0.4656
          CHANNELS 6 Xposition Yposition Zposition Zrotation Xrotation Yrotation
          JOINT Head
          {
            OFFSET -0.0001 12.643 3.4389
            CHANNELS 6 Xposition Yposition Zposition Zrotation Xrotation Yrotation
            End Site
            {
              OFFSET 0.0001 17.6655 0.5274
            }
          }
        }
        JOINT LeftCollar
        {
          OFFSET 2.2603 21.606 7.4023
          CHANNELS 6 Xposition Yposition Zposition Zrotation Xrotation Yrotation
          JOINT LeftShoulder
          {
            OFFSET 13.5163 -1.1332 -5.0146
            CHANNELS 6 Xposition Yposition Zposition Zrotation Xrotation Yrotation
            JOINT LeftElbow
            {
              OFFSET -0.0995 -28.05 -0.2431
              CHANNELS 6 Xposition Yposition Zposition Zrotation Xrotation Yrotation
              JOINT LeftWrist
              {
                OFFSET 0.0679 -23.3996 -0.1402
                CHANNELS 6 Xposition Yposition Zposition Zrotation Xrotation Yrotation
                JOINT LeftFinger1
                {
                  OFFSET 0.7932 -9.069 2.5189
                  CHANNELS 6 Xposition Yposition Zposition Zrotation Xrotation Yrotation
                  JOINT LeftFinger11
                  {
                    OFFSET -0.8272 -3.3923 0.5977
                    CHANNELS 6 Xposition Yposition Zposition Zrotation Xrotation Yrotation
                    JOINT LeftFinger12
                    {
                      OFFSET -0.5649 -2.3158 0.4082
                      CHANNELS 6 Xposition Yposition Zposition Zrotation Xrotation Yrotation
                      End Site
                      {
                        OFFSET -0.4919 -1.6479 0.2673
                      }
                    }
                  }
                }
                JOINT LeftFinger2
                {
                  OFFSET 0.9159 -9.2044 0.2193
                  CHANNELS 6 Xposition Yposition Zposition Zrotation Xrotation Yrotation
                  JOINT LeftFinger21
                  {
                    OFFSET 0.0117 -4.1944 -0.0248
                    CHANNELS 6 Xposition Yposition Zposition Zrotation Xrotation Yrotation
                    JOINT LeftFinger22
                    {
                      OFFSET 0.0071 -2.3249 -0.0142
                      CHANNELS 6 Xposition Yposition Zposition Zrotation Xrotation Yrotation
                      End Site
                      {
                        OFFSET -0.1475 -2.0882 0.0028
                      }
                    }
                  }
                }
                JOINT LeftFinger3
                {
                  OFFSET 0.6113 -8.7231 -2.0637
                  CHANNELS 6 Xposition Yposition Zposition Zrotation Xrotation Yrotation
                  JOINT LeftFinger31
                  {
                    OFFSET -0.1927 -3.8059 -0.2383
                    CHANNELS 6 Xposition Yposition Zposition Zrotation Xrotation Yrotation
                    JOINT LeftFinger32
                    {
                      OFFSET -0.1091 -2.1688 -0.1362
                      CHANNELS 6 Xposition Yposition Zposition Zrotation Xrotation Yrotation
                      End Site
                      {
                        OFFSET -0.2358 -1.9176 -0.0906
                      }
                    }
                  }
                }
                JOINT LeftFinger4
                {
                  OFFSET -0.6151 -8.0947 -3.5641
                  CHANNELS 6 Xposition Yposition Zposition Zrotation Xrotation Yrotation
                  JOINT LeftFinger41
                  {
                    OFFSET -0.4882 -2.341 -0.6462
                    CHANNELS 6 Xposition Yposition Zposition Zrotation Xrotation Yrotation
                    JOINT LeftFinger42
                    {
                      OFFSET -0.3575 -1.7167 -0.4742
                      CHANNELS 6 Xposition Yposition Zposition Zrotation Xrotation Yrotation
                      End Site
                      {
                        OFFSET -0.4187 -1.5237 -0.3496
                      }
                    }
                  }
                }
                JOINT LeftFinger0
                {
                  OFFSET -1.42 -1.8761 1.4223
                  CHANNELS 6 Xposition Yposition Zposition Zrotation Xrotation Yrotation
                  JOINT LeftFinger01
                  {
                    OFFSET -1.1471 -3.4929 2.6334
                    CHANNELS 6 Xposition Yposition Zposition Zrotation Xrotation Yrotation
                    JOINT LeftFinger02
                    {
                      OFFSET -0.823 -2.3 1.6571
                      CHANNELS 6 Xposition Yposition Zposition Zrotation Xrotation Yrotation
                      End Site
                      {
                        OFFSET -0.5822 -1.6914 1.1582
                      }
                    }
                  }
                }
              }
            }
          }
        }
        JOINT RightCollar
        {
          OFFSET -2.2603 21.606 7.4023
          CHANNELS 6 Xposition Yposition Zposition Zrotation Xrotation Yrotation
          JOINT RightShoulder
          {
            OFFSET -13.5187 -1.1334 -5.0155
            CHANNELS 6 Xposition Yposition Zposition Zrotation Xrotation Yrotation
            JOINT RightElbow
            {
              OFFSET 0.0994 -28.0499 -0.2431
              CHANNELS 6 Xposition Yposition Zposition Zrotation Xrotation Yrotation
              JOINT RightWrist
              {
                OFFSET -0.0679 -23.3996 -0.1402
                CHANNELS 6 Xposition Yposition Zposition Zrotation Xrotation Yrotation
                JOINT RightFinger1
                {
                  OFFSET -0.7932 -9.0691 2.5189
                  CHANNELS 6 Xposition Yposition Zposition Zrotation Xrotation Yrotation
                  JOINT RightFinger11
                  {
                    OFFSET 0.8272 -3.3923 0.5977
                    CHANNELS 6 Xposition Yposition Zposition Zrotation Xrotation Yrotation
                    JOINT RightFinger12
                    {
                      OFFSET 0.565 -2.3158 0.4082
                      CHANNELS 6 Xposition Yposition Zposition Zrotation Xrotation Yrotation
                      End Site
                      {
                        OFFSET 0.4919 -1.6479 0.2673
                      }
                    }
                  }
                }
                JOINT RightFinger2
                {
                  OFFSET -0.916 -9.2044 0.2193
                  CHANNELS 6 Xposition Yposition Zposition Zrotation Xrotation Yrotation
                  JOINT RightFinger21
                  {
                    OFFSET -0.0117 -4.1944 -0.0248
                    CHANNELS 6 Xposition Yposition Zposition Zrotation Xrotation Yrotation
                    JOINT RightFinger22
                    {
                      OFFSET -0.0071 -2.3249 -0.0142
                      CHANNELS 6 Xposition Yposition Zposition Zrotation Xrotation Yrotation
                      End Site
                      {
                        OFFSET 0.1475 -2.0882 0.0028
                      }
                    }
                  }
                }
                JOINT RightFinger3
                {
                  OFFSET -0.6113 -8.7231 -2.0637
                  CHANNELS 6 Xposition Yposition Zposition Zrotation Xrotation Yrotation
                  JOINT RightFinger31
                  {
                    OFFSET 0.1927 -3.8059 -0.2383
                    CHANNELS 6 Xposition Yposition Zposition Zrotation Xrotation Yrotation
                    JOINT RightFinger32
                    {
                      OFFSET 0.1091 -2.1688 -0.1362
                      CHANNELS 6 Xposition Yposition Zposition Zrotation Xrotation Yrotation
                      End Site
                      {
                        OFFSET 0.2358 -1.9176 -0.0906
                      }
                    }
                  }
                }
                JOINT RightFinger4
                {
                  OFFSET 0.6151 -8.0947 -3.564
                  CHANNELS 6 Xposition Yposition Zposition Zrotation Xrotation Yrotation
                  JOINT RightFinger41
                  {
                    OFFSET 0.4882 -2.341 -0.6462
                    CHANNELS 6 Xposition Yposition Zposition Zrotation Xrotation Yrotation
                    JOINT RightFinger42
                    {
                      OFFSET 0.3574 -1.7166 -0.4742
                      CHANNELS 6 Xposition Yposition Zposition Zrotation Xrotation Yrotation
                      End Site
                      {
                        OFFSET 0.4187 -1.5237 -0.3496
                      }
                    }
                  }
                }
                JOINT RightFinger0
                {
                  OFFSET 1.4199 -1.8761 1.4221
                  CHANNELS 6 Xposition Yposition Zposition Zrotation Xrotation Yrotation
                  JOINT RightFinger01
                  {
                    OFFSET 1.1472 -3.4929 2.6336
                    CHANNELS 6 Xposition Yposition Zposition Zrotation Xrotation Yrotation
                    JOINT RightFinger02
                    {
                      OFFSET 0.8229 -2.3 1.6571
                      CHANNELS 6 Xposition Yposition Zposition Zrotation Xrotation Yrotation
                      End Site
                      {
                        OFFSET 0.5822 -1.6914 1.1582
                      }
                    }
                  }
                }
              }
            }
          }
        }
      }
    }
  }
  JOINT RightHip
  {
    OFFSET -9.412 3.9771 -0.7758
    CHANNELS 6 Xposition Yposition Zposition Zrotation Xrotation Yrotation
    JOINT RightKnee
    {
      OFFSET -0.7531 -40.938 0
      CHANNELS 6 Xposition Yposition Zposition Zrotation Xrotation Yrotation
      JOINT RightAnkle
      {
        OFFSET 0 -40.1986 0
        CHANNELS 6 Xposition Yposition Zposition Zrotation Xrotation Yrotation
        JOINT RightToe
        {
          OFFSET 0 -4.4182 9.239
          CHANNELS 6 Xposition Yposition Zposition Zrotation Xrotation Yrotation
          End Site
          {
            OFFSET 0 0 6.1981
          }
        }
      }
    }
  }
  JOINT LeftHip
  {
    OFFSET 9.4119 3.9773 -0.7758
    CHANNELS 6 Xposition Yposition Zposition Zrotation Xrotation Yrotation
    JOINT LeftKnee
    {
      OFFSET 0.7532 -40.9383 0
      CHANNELS 6 Xposition Yposition Zposition Zrotation Xrotation Yrotation
      JOINT LeftAnkle
      {
        OFFSET 0 -40.1986 0
        CHANNELS 6 Xposition Yposition Zposition Zrotation Xrotation Yrotation
        JOINT LeftToe
        {
          OFFSET 0 -4.4182 9.239
          CHANNELS 6 Xposition Yposition Zposition Zrotation Xrotation Yrotation
          End Site
          {
            OFFSET 0 0 6.1981
          }
        }
      }
    }
  }
}
MOTION
Frames:	4
Frame Time:	0.0333333
5.72205e-005 65.662 3.42586 0 0 -0 0 8.7983 -4.7612 0 0 -0 0 8.0291 0.4195 0 0 -0 0 9.9351 -2.2114 0 0 -0 0 22.3885 -0.4656 0 0 -0 -0.0001 12.643 3.4389 0 0 -0 2.2603 21.606 7.4023 0 0 -12.5014 13.5163 -1.1332 -5.0146 88.1196 14.2451 10.6914 -0.0995 -28.05 -0.2431 -0.00160068 -0.00239207 0.000740045 0.0679 -23.3996 -0.1402 -8.4365e-005 7.00714e-005 -9.52055e-007 0.7932 -9.069 2.5189 9.93923e-017 -1.98785e-016 -1.59028e-015 -0.8272 -3.3923 0.5977 9.93923e-017 -5.96354e-016 -1.59028e-015 -0.5649 -2.3158 0.4082 -9.93923e-017 -5.96354e-016 -1.59028e-015 0.9159 -9.2044 0.2193 9.93923e-017 -1.98785e-016 -1.59028e-015 0.0117 -4.1944 -0.0248 -0.0128176 0.00232552 8.52707e-005 0.0071 -2.3249 -0.0142 9.93923e-017 5.96354e-016 -0 0.6113 -8.7231 -2.0637 9.93923e-017 -1.98785e-016 -1.59028e-015 -0.1927 -3.8059 -0.2383 -0.0160551 0.00299681 0.000857156 -0.1091 -2.1688 -0.1362 -2.48481e-016 0 3.18055e-015 -0.6151 -8.0947 -3.5641 9.93923e-017 -1.98785e-016 -1.59028e-015 -0.4882 -2.341 -0.6462 -0.0125865 0.0031206 0.00282719 -0.3575 -1.7167 -0.4742 0 1.98785e-016 -0 -1.42 -1.8761 1.4223 9.93923e-017 -1.98785e-016 -1.59028e-015 -1.1471 -3.4929 2.6334 9.93923e-017 -5.96354e-016 -1.59028e-015 -0.823 -2.3 1.6571 -9.93923e-017 -5.96354e-016 -1.59028e-015 -2.2603 21.606 7.4023 -0.865644 0.16582 7.03859 -13.5187 -1.1334 -5.0155 -88.0329 10.2057 -10.5567 0.0994 -28.0499 -0.2431 0.0015593 -0.00248883 -0.000788628 -0.0679 -23.3996 -0.1402 7.87605e-005 4.10553e-005 1.24965e-005 -0.7932 -9.0691 2.5189 -3.97569e-016 -7.95139e-016 3.18055e-015 0.8272 -3.3923 0.5977 -1.98785e-016 -3.97569e-016 3.18055e-015 0.565 -2.3158 0.4082 -1.98785e-016 0 3.18055e-015 -0.916 -9.2044 0.2193 -3.97569e-016 -7.95139e-016 3.18055e-015 -0.0117 -4.1944 -0.0248 0.0129473 0.00231697 -8.70038e-005 -0.0071 -2.3249 -0.0142 9.93923e-017 -7.95139e-016 1.59028e-015 -0.6113 -8.7231 -2.0637 -3.97569e-016 -7.95139e-016 3.18055e-015 0.1927 -3.8059 -0.2383 0.0163314 0.00303369 -0.000872333 0.1091 -2.1688 -0.1362 3.97569e-016 7.95139e-016 -3.18055e-015 0.6151 -8.0947 -3.564 -3.97569e-016 -7.95139e-016 3.18055e-015 0.4882 -2.341 -0.6462 0.0145763 0.00367772 -0.00326275 0.3574 -1.7166 -0.4742 9.93923e-017 -3.97569e-016 -0 1.4199 -1.8761 1.4221 -3.97569e-016 -7.95139e-016 3.18055e-015 1.1472 -3.4929 2.6336 -1.98785e-016 -3.97569e-016 3.18055e-015 0.8229 -2.3 1.6571 -1.98785e-016 0 3.18055e-015 -9.412 3.9771 -0.7758 3.42482 1.32465 -0.0626183 -0.7531 -40.938 0 0.000117508 0.717283 0.000978199 0 -40.1986 0 -3.4257 -2.04197 -0.0604716 8.88178e-016 -4.4182 9.239 6.47761e-025 0 -0 9.4119 3.9773 -0.7758 -3.42483 1.34017 0.0627307 0.7532 -40.9383 -2.22045e-016 -0.000193936 0.682302 -0.0013703 -8.88179e-016 -40.1986 0 3.42574 -2.02253 0.0595886 -8.88178e-016 -4.4182 9.239 -8.45714e-024 0 -7.40531e-025 
-0.0528023 18.4482 2.93931 -6.95892e-008 -66.6516 -4.257e-008 -6.9389e-018 8.7983 -4.7612 -0.0419163 4.4197 -0.0839107 6.93889e-018 8.0291 0.4195 -0.0776661 8.8395 -0.165309 1.38778e-017 9.9351 -2.2114 -0.0776663 8.83951 -0.165309 -1.38778e-017 22.3885 -0.4656 1.33015e-007 13.3021 2.34128e-007 -0.0001 12.643 3.4389 2.87467e-008 6.65559 -6.91612e-008 2.2603 21.606 7.4023 -14.7458 -9.64479 -13.5921 13.5163 -1.1332 -5.0146 40.2657 26.7308 17.3949 -0.0995 -28.05 -0.2431 0.242001 -33.3315 -22.2435 0.0679 -23.3996 -0.1402 -5.30048 5.1401 -18.0849 0.7932 -9.069 2.5189 8.34896e-015 0 -5.56597e-015 -0.8272 -3.3923 0.5977 -3.97569e-016 -3.18055e-015 -1.19271e-015 -0.5649 -2.3158 0.4082 -1.19271e-015 0 3.97569e-016 0.9159 -9.2044 0.2193 8.34896e-015 0 -5.56597e-015 0.0117 -4.1944 -0.0248 -0.0127992 0.00233253 9.6812e-005 0.0071 -2.3249 -0.0142 -2.38542e-015 6.36111e-015 -1.98785e-015 0.6113 -8.7231 -2.0637 8.34896e-015 0 -5.56597e-015 -0.1927 -3.8059 -0.2383 -0.0160318 0.0030082 0.000860586 -0.1091 -2.1688 -0.1362 1.59028e-015 -9.54166e-015 4.77083e-015 -0.6151 -8.0947 -3.5641 8.34896e-015 0 -5.56597e-015 -0.4882 -2.341 -0.6462 -0.0125962 0.00313072 0.00282947 -0.3575 -1.7167 -0.4742 1.3938e-006 -6.5324e-006 -2.23658e-006 -1.42 -1.8761 1.4223 8.34896e-015 0 -5.56597e-015 -1.1471 -3.4929 2.6334 -3.97569e-016 -3.18055e-015 -1.19271e-015 -0.823 -2.3 1.6571 -1.19271e-015 0 3.97569e-016 -2.2603 21.606 7.4023 13.6105 -9.3925 7.63907 -13.5187 -1.1334 -5.0155 -41.5878 24.3194 -12.6354 0.0994 -28.0499 -0.2431 -0.834237 -34.2016 21.4294 -0.0679 -23.3996 -0.1402 4.65018 5.11197 18.6038 -0.7932 -9.0691 2.5189 -7.2411e-006 -7.5964e-006 6.97207e-006 0.8272 -3.3923 0.5977 9.14997e-006 1.75901e-005 -9.34905e-006 0.565 -2.3158 0.4082 -4.77083e-015 9.54166e-015 -2.78299e-015 -0.916 -9.2044 0.2193 -7.2411e-006 -7.5964e-006 6.97207e-006 -0.0117 -4.1944 -0.0248 0.0129777 0.00233392 -9.64774e-005 -0.0071 -2.3249 -0.0142 1.35111e-006 -2.60813e-006 -1.90426e-006 -0.6113 -8.7231 -2.0637 -7.2411e-006 -7.5964e-006 6.97207e-006 0.1927 -3.8059 -0.2383 0.0163343 0.00303655 -0.000877442 0.1091 -2.1688 -0.1362 2.76454e-007 3.32557e-006 -2.36169e-007 0.6151 -8.0947 -3.564 -7.2411e-006 -7.5964e-006 6.97207e-006 0.4882 -2.341 -0.6462 0.0146295 0.00369895 -0.00327283 0.3574 -1.7166 -0.4742 7.95139e-016 6.36111e-015 -3.97569e-015 1.4199 -1.8761 1.4221 -7.2411e-006 -7.5964e-006 6.97207e-006 1.1472 -3.4929 2.6336 9.14997e-006 1.75901e-005 -9.34905e-006 0.8229 -2.3 1.6571 -4.77083e-015 9.54166e-015 -2.78299e-015 -9.412 3.9771 -0.7758 -5.84527 -25.681 8.5887 -0.7531 -40.938 3.55271e-015 31.4941 14.2982 -42.6713 -3.55271e-015 -40.1986 0 -9.72152 14.5142 -2.8078 0 -4.4182 9.239 -1.29304e-006 -3.017e-007 -1.11523e-006 9.4119 3.9773 -0.7758 7.77572 -25.2133 -8.08675 0.7532 -40.9383 -3.55271e-015 -34.6294 2.61866 30.9629 -3.55271e-015 -40.1986 0 10.083 15.9733 2.50273 -1.77636e-015 -4.4182 9.239 -6.36111e-015 0 3.18055e-015 
0.00102597 -1.72384 -2.55174 180 -83.2737 180 0 8.7983 -4.7612 -0.0526594 6.3803 -0.125117 -6.93889e-018 8.0291 0.4195 -0.092062 12.7608 -0.246608 -1.38778e-017 9.9351 -2.2114 -0.0920622 12.7608 -0.246608 0 22.3885 -0.4656 1.70041e-008 19.4364 6.35987e-008 -0.0001 12.643 3.4389 2.22727e-007 9.70012 -1.82839e-007 2.2603 21.606 7.4023 -21.4974 -13.8265 -13.9545 13.5163 -1.1332 -5.0146 18.0135 30.29 19.284 -0.0995 -28.05 -0.2431 -1.21159 -48.2815 -34.1213 0.0679 -23.3996 -0.1402 -7.65919 7.34613 -26.3264 0.7932 -9.069 2.5189 -3.97569e-016 -7.95139e-016 -3.2551e-015 -0.8272 -3.3923 0.5977 -7.95139e-016 -7.95139e-016 -1.2424e-016 -0.5649 -2.3158 0.4082 -1.19271e-015 -3.97569e-016 -2.73329e-016 0.9159 -9.2044 0.2193 -3.97569e-016 -7.95139e-016 -3.2551e-015 0.0117 -4.1944 -0.0248 -0.0128366 0.00233281 7.70481e-005 0.0071 -2.3249 -0.0142 2.48571e-006 -1.05138e-005 -6.05336e-006 0.6113 -8.7231 -2.0637 -3.97569e-016 -7.95139e-016 -3.2551e-015 -0.1927 -3.8059 -0.2383 -0.016028 0.00299263 0.000857524 -0.1091 -2.1688 -0.1362 -6.06912e-032 -7.95139e-016 -4.37326e-015 -0.6151 -8.0947 -3.5641 -3.97569e-016 -7.95139e-016 -3.2551e-015 -0.4882 -2.341 -0.6462 -0.0125774 0.0031184 0.0028233 -0.3575 -1.7167 -0.4742 -3.97569e-016 0 2.36057e-015 -1.42 -1.8761 1.4223 -3.97569e-016 -7.95139e-016 -3.2551e-015 -1.1471 -3.4929 2.6334 -7.95139e-016 -7.95139e-016 -1.2424e-016 -0.823 -2.3 1.6571 -1.19271e-015 -3.97569e-016 -2.73329e-016 -2.2603 21.606 7.4023 20.1872 -13.5354 7.77645 -13.5187 -1.1334 -5.0155 -20.2044 29.5459 -12.9416 0.0994 -28.0499 -0.2431 0.106211 -49.6047 32.642 -0.0679 -23.3996 -0.1402 6.74493 7.2656 27.1025 -0.7932 -9.0691 2.5189 -2.99787e-006 -1.20479e-005 1.66161e-006 0.8272 -3.3923 0.5977 -7.95139e-016 -2.38542e-015 -7.50412e-015 0.565 -2.3158 0.4082 -1.14486e-031 -1.59028e-015 -4.12478e-015 -0.916 -9.2044 0.2193 -2.99787e-006 -1.20479e-005 1.66161e-006 -0.0117 -4.1944 -0.0248 0.0129498 0.0023228 -9.3772e-005 -0.0071 -2.3249 -0.0142 -2.95731e-006 -1.17189e-005 5.82511e-006 -0.6113 -8.7231 -2.0637 -2.99787e-006 -1.20479e-005 1.66161e-006 0.1927 -3.8059 -0.2383 0.0163283 0.00303696 -0.000877441 0.1091 -2.1688 -0.1362 -7.95139e-016 1.59028e-015 1.08338e-014 0.6151 -8.0947 -3.564 -2.99787e-006 -1.20479e-005 1.66161e-006 0.4882 -2.341 -0.6462 0.0145723 0.00368237 -0.0032657 0.3574 -1.7166 -0.4742 7.95139e-016 -7.95139e-016 1.09332e-015 1.4199 -1.8761 1.4221 -2.99787e-006 -1.20479e-005 1.66161e-006 1.1472 -3.4929 2.6336 -7.95139e-016 -2.38542e-015 -7.50412e-015 0.8229 -2.3 1.6571 -1.14486e-031 -1.59028e-015 -4.12478e-015 -9.412 3.9771 -0.7758 -6.51677 -38.3554 15.0356 -0.7531 -40.938 0 52.2497 14.1341 -63.0968 -3.55271e-015 -40.1986 0 -11.5413 21.5272 -4.26908 3.55271e-015 -4.4182 9.239 -1.00657e-005 1.33711e-005 1.26389e-006 9.4119 3.9773 -0.7758 10.4143 -37.563 -13.6921 0.7532 -40.9383 8.88178e-016 -52.4561 3.29496 45.2054 -7.10543e-015 -40.1986 0 12.6969 23.4552 4.02853 -1.77636e-015 -4.4182 9.239 -1.18758e-006 1.36728e-006 -2.04364e-006 
-0.0167159 2.90959 -1.10975 180 -89.7758 180 -3.46945e-018 8.7983 -4.7612 -0.0503944 5.88212 -0.115945 0 8.0291 0.4195 -0.089462 11.7643 -0.228479 -1.38778e-017 9.9351 -2.2114 -0.0894622 11.7644 -0.228479 2.77556e-017 22.3885 -0.4656 -1.44531e-007 18.4027 -2.62719e-007 -0.0001 12.643 3.4389 5.3589e-008 9.13361 -1.11554e-007 2.2603 21.606 7.4023 -19.9848 -12.551 -13.5331 13.5163 -1.1332 -5.0146 22.9479 29.5726 18.9737 -0.0995 -28.05 -0.2431 -0.706058 -44.9693 -31.2911 0.0679 -23.3996 -0.1402 -7.15734 6.78568 -24.6779 0.7932 -9.069 2.5189 2.5842e-015 1.59028e-015 -1.25731e-014 -0.8272 -3.3923 0.5977 -1.33087e-006 -5.84923e-007 -2.46621e-006 -0.5649 -2.3158 0.4082 -2.5842e-015 -1.59028e-015 1.59028e-014 0.9159 -9.2044 0.2193 2.5842e-015 1.59028e-015 -1.25731e-014 0.0117 -4.1944 -0.0248 -0.0128362 0.00231697 8.37167e-005 0.0071 -2.3249 -0.0142 3.34746e-006 2.49556e-006 6.68258e-007 0.6113 -8.7231 -2.0637 2.5842e-015 1.59028e-015 -1.25731e-014 -0.1927 -3.8059 -0.2383 -0.0160637 0.00300204 0.000873377 -0.1091 -2.1688 -0.1362 3.34746e-006 2.49551e-006 6.68297e-007 -0.6151 -8.0947 -3.5641 2.5842e-015 1.59028e-015 -1.25731e-014 -0.4882 -2.341 -0.6462 -0.0126062 0.0031278 0.00283079 -0.3575 -1.7167 -0.4742 -1.19271e-015 0 -1.08835e-014 -1.42 -1.8761 1.4223 2.5842e-015 1.59028e-015 -1.25731e-014 -1.1471 -3.4929 2.6334 -1.33087e-006 -5.84923e-007 -2.46621e-006 -0.823 -2.3 1.6571 -2.5842e-015 -1.59028e-015 1.59028e-014 -2.2603 21.606 7.4023 18.7037 -12.265 7.41958 -13.5187 -1.1334 -5.0155 -24.9595 28.4199 -12.9289 0.0994 -28.0499 -0.2431 -0.262772 -46.1816 29.9833 -0.0679 -23.3996 -0.1402 6.29606 6.70456 25.3942 -0.7932 -9.0691 2.5189 1.59028e-015 1.59028e-015 -8.84592e-015 0.8272 -3.3923 0.5977 4.37326e-015 3.18055e-015 -2.16675e-014 0.565 -2.3158 0.4082 5.96354e-015 1.59028e-015 -1.19271e-014 -0.916 -9.2044 0.2193 1.59028e-015 1.59028e-015 -8.84592e-015 -0.0117 -4.1944 -0.0248 0.0129589 0.00231681 -8.81959e-005 -0.0071 -2.3249 -0.0142 -3.97569e-016 0 -6.36111e-015 -0.6113 -8.7231 -2.0637 1.59028e-015 1.59028e-015 -8.84592e-015 0.1927 -3.8059 -0.2383 0.0163474 0.00302873 -0.000859234 0.1091 -2.1688 -0.1362 2.78299e-015 1.59028e-015 -1.98785e-015 0.6151 -8.0947 -3.564 1.59028e-015 1.59028e-015 -8.84592e-015 0.4882 -2.341 -0.6462 0.0145877 0.00367542 -0.00325825 0.3574 -1.7166 -0.4742 2.538e-031 -3.18055e-015 4.57205e-015 1.4199 -1.8761 1.4221 1.59028e-015 1.59028e-015 -8.84592e-015 1.1472 -3.4929 2.6336 4.37326e-015 3.18055e-015 -2.16675e-014 0.8229 -2.3 1.6571 5.96354e-015 1.59028e-015 -1.19271e-014 -9.412 3.9771 -0.7758 -6.6541 -35.5123 13.367 -0.7531 -40.938 6.66134e-016 47.7667 14.9215 -58.6883 3.55271e-015 -40.1986 0 -11.2032 19.9356 -3.9322 0 -4.4182 9.239 1.59028e-015 3.18055e-015 -1.59028e-015 9.4119 3.9773 -0.7758 10.0769 -34.8118 -12.2525 0.7532 -40.9383 3.55271e-015 -48.4404 3.3728 42.0042 7.10543e-015 -40.1986 -7.10543e-015 12.1979 21.8015 3.65327 0 -4.4182 9.239 -2.75917e-006 2.01822e-006 -1.80188e-006 
